@startuml

interface Dialogo {
  + operation(): void
}

class DialogoWindows implements Dialogo {
  + operation(): void
}

class DialogoMac implements Dialogo {
  + operation(): void
}

abstract class FabricaDialogo {
  + createDialogo(): Dialogo
}

class FabricaDialogoWindows extends FabricaDialogo {
  + createDialogo(): Dialogo
}

class FabricaDialogoMac extends FabricaDialogo {
  + createDialogo(): Dialogo
}

class Cliente {
  + main(): void
}

FabricaDialogoMac -- DialogoMac : crea
FabricaDialogoWindows -- DialogoWindows : crea

Cliente --> FabricaDialogoMac : usa
Cliente --> FabricaDialogoWindows : usa

Cliente <-- DialogoMac : Recibe
Cliente <-- DialogoWindows : Recibe

@enduml